<?xml version="1.0" encoding="UTF-8"?>
<svg width="15px" height="14px" viewBox="0 0 15 14" version="1.1" xmlns="http://www.w3.org/2000/svg" xmlns:xlink="http://www.w3.org/1999/xlink">
    <!-- Generator: Sketch 49.1 (51147) - http://www.bohemiancoding.com/sketch -->
    <title>wenhao copy 6</title>
    <desc>Created with Sketch.</desc>
    <defs></defs>
    <g id="Page-1" stroke="none" stroke-width="1" fill="none" fill-rule="evenodd">
        <g id="创新与优秀案例" transform="translate(-1033.000000, -390.000000)" fill="#FAAC14" fill-rule="nonzero">
            <g id="Group-14" transform="translate(260.000000, 183.000000)">
                <g id="Group-10" transform="translate(724.200000, 56.000000)">
                    <g id="wenhao-copy-6" transform="translate(49.000000, 151.000000)">
                        <path d="M6.24999328,11.2555033 C6.24999328,11.6697218 6.58578148,12.00551 7,12.00551 C7.41421852,12.00551 7.75000672,11.6697218 7.75000672,11.2555033 C7.75000672,10.8412848 7.41421852,10.5054966 7,10.5054966 C6.58578148,10.5054966 6.24999328,10.8412848 6.24999328,11.2555033 Z" id="Shape"></path>
                        <path d="M7,14 C3.14000806,14 0,10.8599919 0,7 C0,3.14000806 3.14000806,0 7,0 C10.8599919,0 14,3.14000806 14,7 C14,10.8599919 10.8599919,14 7,14 Z M7,1.00448864 C3.69399275,1.00448864 1.00448864,3.69399273 1.00448864,7 C1.00448864,10.3054966 3.69399273,12.9955114 7,12.9955114 C10.3054966,12.9955114 12.9955114,10.3055235 12.9955114,7 C12.9955114,3.69399275 10.3054966,1.00448864 7,1.00448864 Z" id="Shape"></path>
                        <path d="M7,9.52648837 C6.72398872,9.52648837 6.49998656,9.30248622 6.49998656,9.02650181 L6.49998656,8.18099717 C6.49998656,7.36298884 7.1249832,6.7379922 7.67697891,6.18650719 C8.08146755,5.78150786 8.49998656,5.36349953 8.49998656,5.02999597 C8.49998656,4.19650584 7.82698563,3.51850558 7,3.51850558 C6.15901089,3.51850558 5.50001344,4.16750437 5.50001344,4.99599516 C5.50001344,5.27200644 5.27601128,5.49598172 5,5.49598172 C4.72398872,5.49598172 4.49998656,5.27197956 4.49998656,4.99599516 C4.49998656,3.62999597 5.62147561,2.51850558 7,2.51850558 C8.37852439,2.51850558 9.50001344,3.64499395 9.50001344,5.02999597 C9.50001344,5.77849752 8.93250906,6.3454912 8.38400753,6.89399275 C7.94901223,7.32799356 7.50001344,7.77699234 7.50001344,8.1804865 L7.50001344,9.02599114 C7.50001344,9.30200242 7.27601128,9.52648837 7,9.52648837 Z" id="Shape"></path>
                    </g>
                </g>
            </g>
        </g>
    </g>
</svg>