<?xml version="1.0" encoding="UTF-8"?>
<svg width="28px" height="28px" viewBox="0 0 28 28" version="1.1" xmlns="http://www.w3.org/2000/svg" xmlns:xlink="http://www.w3.org/1999/xlink">
    <!-- Generator: Sketch 49.1 (51147) - http://www.bohemiancoding.com/sketch -->
    <title>Group 8</title>
    <desc>Created with Sketch.</desc>
    <defs></defs>
    <g id="Page-1" stroke="none" stroke-width="1" fill="none" fill-rule="evenodd">
        <g id="认证管理-删除弹框" transform="translate(-669.000000, -356.000000)" fill="#FF0000" fill-rule="nonzero">
            <g id="Group-8" transform="translate(669.000000, 356.000000)">
                <g id="yduigantanhaoshixin">
                    <path d="M14.000096,0 C6.26798337,0 0,6.26795137 0,14.000064 C0,21.7320166 6.26795138,28 14.000096,28 C21.7320166,28 28,21.7320486 28,14.000064 C28,6.26798336 21.7320166,0 14.000096,0 Z M14.000352,20.999952 C13.3561799,20.999952 12.833464,20.4772041 12.833464,19.832968 C12.833464,19.1889559 13.3561799,18.6660801 14.000352,18.6660801 C14.644588,18.6660801 15.166536,19.1889559 15.166536,19.832968 C15.166536,20.4772361 14.644556,20.999952 14.000352,20.999952 Z M15.166536,15.750012 C15.166536,16.3941201 14.644588,16.9160681 14.000352,16.9160681 C13.3561799,16.9160681 12.833464,16.3941201 12.833464,15.750012 L12.833464,8.16620005 C12.833464,7.52193198 13.3561799,7.000016 14.000352,7.000016 C14.644588,7.000016 15.166536,7.521964 15.166536,8.16620005 L15.166536,15.750012 Z" id="Shape"></path>
                </g>
            </g>
        </g>
    </g>
</svg>